<svg width="48" height="48" viewBox="0 0 48 48" fill="none" xmlns="http://www.w3.org/2000/svg">
<rect width="48" height="48" fill="white"/>
<rect width="48" height="48" rx="24" fill="white"/>
<g clip-path="url(#clip0_5112_9448)">
<path d="M15.7728 13.2834L3.61995 33.9255C3.56169 34.0249 3.5 34.1037 3.5 34.2168V35.0085C3.5 35.221 3.60282 35.4232 3.7776 35.5431L5.43637 36.6947C5.45351 36.705 5.47065 36.7153 5.48435 36.7255L16.0162 43.0316C16.4309 43.2784 16.9689 43.1413 17.2088 42.7232L33.351 14.8325C33.6766 14.267 33.2859 13.5575 32.6313 13.5336L16.3555 12.9612C16.119 12.9544 15.8928 13.0777 15.7728 13.2834Z" fill="#FEFEFE"/>
<path d="M23.6348 1.03084C23.6348 1.02056 23.6382 1.01028 23.6382 1C23.8678 1 24.0941 1 24.3237 1C24.3237 1.01028 24.3237 1.02056 24.3271 1.03084C24.0941 1.12338 23.8644 1.12338 23.6348 1.03084Z" fill="#CDE3F0"/>
<path d="M16.5027 40.0052C17.4452 38.4047 18.3842 36.8042 19.3302 35.2037C22.2947 30.1794 25.2558 25.1551 28.2203 20.1308C29.3033 18.2973 30.3829 16.4603 31.4659 14.6267C31.4933 14.5787 31.5207 14.5308 31.5619 14.4588C31.0615 14.4588 30.5851 14.4588 30.1087 14.4588C30.0642 14.4588 30.0162 14.4622 29.9716 14.4622C28.4979 14.4657 27.0277 14.4691 25.554 14.4725C25.3723 14.4725 25.1873 14.4862 25.0056 14.4828C24.8994 14.4794 24.8445 14.5171 24.7897 14.6062C23.8849 16.1039 22.9801 17.5981 22.0719 19.0924C19.0697 24.0481 16.064 29.0004 13.0618 33.9562C11.9856 35.7281 10.9678 37.404 9.89504 39.1792C9.82649 39.2958 9.78194 39.3061 9.66884 39.2375C9.18561 38.9496 8.7058 38.6617 8.2157 38.367C8.10261 38.3019 8.09575 38.2471 8.16772 38.134C9.36382 36.2284 10.4742 34.4531 11.6635 32.5407C15.3683 26.6014 19.0765 20.6586 22.7814 14.7193C22.8293 14.6439 22.8773 14.565 22.9561 14.4348C22.6648 14.4348 22.4146 14.4348 22.161 14.4348C21.3042 14.4314 20.4509 14.356 19.594 14.4074C18.5864 14.4691 17.6028 14.6473 16.6809 15.0791C15.8927 15.4493 15.2655 15.9908 14.7891 16.731C12.0233 21.0425 9.24044 25.3505 6.46097 29.6585C6.43698 29.6962 6.40614 29.727 6.37872 29.7613C6.29989 29.6722 6.33074 29.5659 6.33074 29.4665C6.32731 26.6459 6.33074 23.8288 6.33074 21.0082C6.33074 19.2672 6.33074 17.5261 6.33074 15.7851C6.33074 15.4321 6.27933 15.0791 6.29647 14.7261C6.3136 14.3903 6.37529 14.0715 6.58092 13.7905C6.70088 13.626 6.84825 13.4958 7.02303 13.3929C8.43505 12.5704 9.84706 11.7547 11.2591 10.9356C12.8493 10.0137 14.4395 9.09522 16.0297 8.1733C17.7948 7.15542 19.5529 6.13068 21.3214 5.1128C21.9211 4.77008 22.5209 4.43079 23.1138 4.07093C23.693 3.72135 24.2448 3.71793 24.8377 4.06065C27.2402 5.44867 29.6461 6.82641 32.0485 8.211C34.8828 9.84235 37.7206 11.4668 40.5514 13.1016C40.7194 13.1976 40.8942 13.2833 41.0518 13.3964C41.4494 13.6774 41.6721 14.0544 41.6721 14.5513C41.6721 19.7504 41.6721 24.9495 41.6721 30.1486C41.6721 30.2274 41.679 30.3096 41.655 30.385C41.5625 30.4707 41.5385 30.361 41.5076 30.3199C41.3226 30.0663 41.1615 29.7956 40.9936 29.5317C40.4521 28.6851 39.9106 27.842 39.3656 26.9955C38.2861 25.3162 37.2065 23.6334 36.1269 21.9541C35.51 20.9945 34.8965 20.0314 34.2762 19.0752C33.7381 18.2424 33.2104 17.3993 32.6654 16.57C32.638 16.5288 32.6243 16.474 32.5592 16.45C32.4564 16.5974 32.3673 16.755 32.2747 16.9127C31.2945 18.5783 30.3109 20.2474 29.3273 21.9095C29.2588 22.0261 29.2554 22.1152 29.3273 22.2386C30.2287 23.6917 31.13 25.1483 32.0314 26.6048C33.1966 28.4864 34.3619 30.3713 35.5272 32.2529C36.3154 33.5244 37.1002 34.7959 37.8851 36.0673C37.9228 36.129 37.9708 36.1873 37.9776 36.2661C37.9708 36.3244 37.9296 36.3552 37.8851 36.3792C37.4053 36.6465 36.9357 36.931 36.4594 37.2018C36.4148 37.2257 36.3702 37.2566 36.3154 37.236C36.0412 36.8659 35.8082 36.4649 35.5614 36.0742C34.9274 35.0769 34.2968 34.0796 33.6627 33.0822C32.8574 31.8108 32.0485 30.5393 31.2431 29.2678C30.6228 28.291 30.0025 27.3143 29.3822 26.3341C28.9606 25.6692 28.5356 25.0043 28.1175 24.3394C28.0113 24.1715 28.0113 24.1681 27.905 24.3463C26.99 25.892 26.0783 27.4411 25.1667 28.9902C24.8685 29.4974 24.5738 30.0046 24.2688 30.505C24.1968 30.6249 24.2036 30.7175 24.2756 30.834C25.4032 32.5853 26.517 34.3435 27.6377 36.0982C28.5459 37.5205 29.4507 38.9462 30.3589 40.3685C30.4069 40.4439 30.4686 40.5159 30.4754 40.6118C30.4583 40.6804 30.4 40.7112 30.3452 40.7421C29.2382 41.3795 28.1347 42.0204 27.0311 42.6613C26.2805 43.0965 25.5265 43.5249 24.7828 43.9671C24.2996 44.2549 23.8267 44.2618 23.3434 43.9842C21.9108 43.1617 20.4748 42.3357 19.0423 41.5132C18.2506 41.0574 17.4623 40.605 16.6706 40.1492C16.6021 40.1252 16.513 40.1046 16.5027 40.0052Z" fill="#2A374D"/>
<path d="M41.6276 30.4397C41.6276 30.378 41.631 30.3129 41.631 30.2512C41.631 25.0521 41.631 19.853 41.631 14.6539C41.631 14.061 41.3739 13.6326 40.8633 13.3413C37.3984 11.3535 33.9335 9.3589 30.4686 7.36769C28.5425 6.26069 26.613 5.15028 24.6869 4.04329C24.2174 3.77596 23.7375 3.77254 23.2714 4.04329C20.8724 5.42788 18.4734 6.8159 16.0743 8.20393C13.0686 9.94495 10.0664 11.686 7.06075 13.4236C6.58094 13.7012 6.34447 14.1262 6.34789 14.6642C6.37874 19.6954 6.3616 24.73 6.37531 29.7611C6.28278 30.0216 6.09771 30.2306 5.95034 30.4568C5.17236 31.6632 4.3841 32.8627 3.59585 34.0657C3.57528 34.0965 3.56843 34.1445 3.49989 34.1514C3.49989 34.0897 3.49989 34.0314 3.49989 33.9697C3.49989 27.5163 3.4896 21.0628 3.50674 14.6094C3.51017 13.0055 4.26072 11.7717 5.64532 10.9526C6.92024 10.1986 8.21229 9.472 9.4975 8.73172C10.9198 7.90919 12.3387 7.08665 13.7575 6.26069C16.112 4.90009 18.4631 3.53263 20.8176 2.17888C21.3419 1.87728 21.8423 1.53456 22.4078 1.30837C22.8019 1.15071 23.2098 1.05818 23.6347 1.03076C23.8643 1.03076 24.094 1.03076 24.3236 1.03076C25.0022 1.07874 25.6225 1.29466 26.2086 1.63738C27.6206 2.46334 29.0429 3.27216 30.4617 4.08784C31.8737 4.90009 33.2892 5.71577 34.7012 6.52802C36.0995 7.33341 37.4978 8.13538 38.8995 8.94078C40.1059 9.63308 41.326 10.3014 42.5118 11.028C43.5639 11.6723 44.198 12.6387 44.4276 13.8588C44.4756 14.1124 44.4927 14.3661 44.4927 14.6231C44.4927 20.9018 44.4996 27.1804 44.4859 33.4591C44.4824 34.7683 43.9375 35.8616 42.8991 36.6704C42.5152 36.9686 42.0628 37.1776 41.6378 37.4244C40.3663 38.1612 39.0914 38.8981 37.8199 39.6349C36.3942 40.4609 34.9685 41.2834 33.5394 42.1094C32.2918 42.8325 31.0443 43.5557 29.7934 44.2788C28.4054 45.0808 27.0277 45.893 25.6294 46.6813C25.2421 46.9006 24.7897 46.9623 24.3442 46.9932C23.4085 47.0549 22.562 46.8081 21.7566 46.3317C20.2007 45.4098 18.6276 44.5221 17.0613 43.6208C16.4342 43.2609 15.807 42.9011 15.1764 42.5378C15.1044 42.4967 15.0256 42.4692 15.0976 42.3493C15.5568 41.5816 16.0092 40.8105 16.465 40.0393C16.4719 40.0256 16.489 40.0188 16.5027 40.0051C16.9105 40.2792 17.3424 40.5054 17.7673 40.7488C19.6523 41.8352 21.5373 42.9216 23.4291 44.0012C23.8129 44.2205 24.2311 44.2411 24.6218 44.0149C26.5444 42.9114 28.4602 41.7975 30.376 40.6871C30.4035 40.6699 30.4309 40.646 30.4583 40.6288C30.496 40.5671 30.5577 40.5363 30.6159 40.502C32.1788 39.6075 33.7347 38.6959 35.2941 37.7945C35.582 37.63 35.8664 37.4655 36.1509 37.2976C36.2057 37.2667 36.2537 37.2256 36.3222 37.2359C36.874 36.9274 37.4189 36.6156 37.957 36.2865C37.9879 36.218 38.053 36.1906 38.1112 36.1563C39.0229 35.6251 39.9277 35.0836 40.8496 34.5764C41.3842 34.285 41.5899 33.8429 41.5967 33.2774C41.607 32.4001 41.6001 31.5227 41.6001 30.6453C41.607 30.5734 41.5933 30.5048 41.6276 30.4397Z" fill="#88BEDE"/>
<path d="M41.6276 30.4398C41.6584 30.5049 41.6481 30.5735 41.6481 30.642C41.6481 31.5194 41.6481 32.3967 41.6481 33.2775C41.6481 33.6443 41.559 33.9835 41.326 34.2817C41.1614 34.4942 40.9147 34.5833 40.6988 34.7135C39.8454 35.2139 38.9886 35.7074 38.1284 36.2044C38.0735 36.2352 38.0153 36.2592 37.9604 36.2866C36.802 34.4154 35.6436 32.5441 34.4852 30.6729C32.7442 27.8591 31.0066 25.0488 29.2621 22.2385C29.197 22.1323 29.1901 22.0603 29.2553 21.9506C30.3383 20.1273 31.4144 18.2972 32.4906 16.4739C32.5111 16.4397 32.5317 16.4054 32.5625 16.3608C32.7819 16.7001 32.9944 17.0291 33.2069 17.3582C35.39 20.7579 37.5766 24.1612 39.7597 27.5644C40.3458 28.476 40.9318 29.3877 41.5179 30.2993C41.5522 30.3404 41.5933 30.3884 41.6276 30.4398Z" fill="#00A1F6"/>
<path d="M36.3256 37.2326C35.6882 37.6062 35.0507 37.9832 34.4098 38.3567C33.296 39.0045 32.1821 39.6488 31.0683 40.2897C30.8661 40.4062 30.6741 40.5365 30.4582 40.629C28.7549 37.9558 27.0516 35.2825 25.3482 32.6093C24.9678 32.013 24.5874 31.4166 24.207 30.8237C24.1556 30.7449 24.1213 30.6832 24.183 30.5804C25.4442 28.4521 26.6986 26.3204 27.9564 24.1887C27.9666 24.1681 27.9838 24.1544 28.0078 24.1201C28.1825 24.3977 28.3539 24.665 28.5253 24.9289C30.7804 28.483 33.0355 32.0335 35.2906 35.5876C35.6367 36.1291 35.9795 36.6808 36.3256 37.2326Z" fill="#00A1F6"/>
</g>
<defs>
<clipPath id="clip0_5112_9448">
<rect width="40.9963" height="46" fill="white" transform="translate(3.5 1)"/>
</clipPath>
</defs>
</svg>
