<svg width="48" height="48" viewBox="0 0 48 48" fill="none" xmlns="http://www.w3.org/2000/svg">
<circle cx="24" cy="24" r="24" fill="#1C68F3"/>
<path fill-rule="evenodd" clip-rule="evenodd" d="M37.6367 18.3112V25.8669H14.6061L13.6153 25.867C14.664 30.4515 18.8261 33.8759 23.8009 33.8759C27.9137 33.8759 31.4711 31.5353 33.1729 28.1337H37.6367V34.4803C37.6367 35.9826 36.3993 37.2004 34.873 37.2004H12.7637C11.2374 37.2004 10 35.9826 10 34.4803V18.3112H37.6367ZM30.5223 28.1337C29.0566 30.2427 26.593 31.6267 23.8009 31.6267C21.0088 31.6267 18.5452 30.2427 17.0795 28.1337H30.5223ZM17.9072 20.1246C15.7414 20.1246 13.9497 21.7008 13.6517 23.7513H16.0075C16.2665 22.9621 17.0191 22.3913 17.9072 22.3913C18.7953 22.3913 19.5479 22.9621 19.8069 23.7513H22.1627C21.8647 21.7008 20.073 20.1246 17.9072 20.1246ZM29.7295 20.1246C27.5637 20.1246 25.772 21.7008 25.474 23.7513H27.8298C28.0888 22.9621 28.8414 22.3913 29.7295 22.3913C30.6176 22.3913 31.3702 22.9621 31.6292 23.7513H33.985C33.687 21.7008 31.8953 20.1246 29.7295 20.1246ZM34.873 10C36.3993 10 37.6367 11.2178 37.6367 12.72V16.0445H10V12.72C10 11.2178 11.2374 10 12.7637 10H34.873Z" fill="white"/>
</svg>
