<svg width="48" height="48" viewBox="0 0 48 48" fill="none" xmlns="http://www.w3.org/2000/svg">
<rect width="48" height="48" rx="24" fill="#1D0D4B"/>
<path fill-rule="evenodd" clip-rule="evenodd" d="M22.7515 8.71409C21.5858 9.82634 20.5605 11.0442 19.9824 12.3904C19.4049 13.6947 19.2509 15.1495 19.5426 16.5472C19.7732 17.8859 20.4291 19.1128 21.4115 20.0432C22.3575 20.9905 23.6284 21.7742 24.9786 22.6067L25.092 22.6767L25.1768 22.7299C26.537 23.5837 28.022 24.5159 29.2537 25.9204C30.517 27.3718 31.2606 29.2086 31.3651 31.1366C31.493 32.9883 31.0384 34.8334 30.066 36.4097C29.1013 37.9482 27.7308 39.0778 26.2931 39.9407C26.106 40.0529 25.8649 40.0017 25.7386 39.823C25.6122 39.6443 25.643 39.3978 25.8093 39.2563C27.0221 38.2134 28.068 37.0002 28.6845 35.6422C29.2929 34.3074 29.4758 32.8153 29.2079 31.3714C28.9974 29.9908 28.3261 28.7238 27.3048 27.7797C26.3154 26.8245 25.014 26.0598 23.6267 25.2446L23.578 25.2159L23.3362 25.071C22.0068 24.2752 20.568 23.4138 19.3207 22.1029C18.6522 21.3892 18.1061 20.5684 17.7046 19.6742C17.324 18.7816 17.0933 17.8313 17.022 16.8623C16.893 14.9916 17.3297 13.0113 18.3645 11.4802C19.3648 10.0233 20.712 8.84304 22.2825 8.04768C22.4639 7.95119 22.6881 8.00509 22.8068 8.17369C22.9254 8.34229 22.9018 8.57342 22.7515 8.71409ZM26.0721 8.03262C27.1695 8.55402 28.1632 9.2729 29.0045 10.1539C29.4484 10.634 29.84 11.1606 30.1727 11.7247C30.511 12.3253 30.7748 12.9656 30.9583 13.631C31.133 14.3135 31.2246 15.0148 31.2312 15.7195C31.2171 16.4188 31.0465 19.8094 29.1911 21.4406C28.9555 21.6073 28.6636 21.6722 28.3803 21.621C28.097 21.5697 27.8457 21.4065 27.6823 21.1677C27.4521 20.8098 27.4311 20.3546 27.6273 19.9767L27.651 19.9327L27.6935 19.8523C28.2549 18.7921 30.1569 15.2002 27.856 11.247C27.2217 10.3158 26.4993 9.44878 25.699 8.65815L25.6963 8.65566C25.5568 8.5071 25.5499 8.27673 25.6803 8.11999C25.7759 8.00422 25.937 7.96828 26.0721 8.03262ZM19.3917 37.8469C20.2331 38.7277 21.2268 39.4466 22.324 39.9682C22.4591 40.0326 22.6203 39.9966 22.7159 39.8808C22.8463 39.7241 22.8394 39.4937 22.6999 39.3451L22.6974 39.3427C21.8971 38.5521 21.1747 37.6851 20.5405 36.7538C18.2393 32.8004 20.1412 29.2088 20.7026 28.1486C20.7178 28.1199 20.7321 28.093 20.7452 28.0681L20.7688 28.0241C20.9652 27.6462 20.9442 27.191 20.7138 26.8331C20.5504 26.5943 20.2992 26.4311 20.0159 26.3798C19.7326 26.3286 19.4407 26.3935 19.2051 26.5602C17.35 28.1914 17.1791 31.5817 17.1652 32.281C17.1716 32.9858 17.2632 33.6873 17.4379 34.3698C17.6213 35.0351 17.8851 35.6753 18.2234 36.2758C18.5561 36.84 18.9477 37.3667 19.3917 37.8469Z" fill="white"/>
</svg>
